<svg width="20" height="14" viewBox="0 0 20 14" fill="none" xmlns="http://www.w3.org/2000/svg">
<path d="M13.3035 7.00018C12.7753 7.00018 12.2785 6.71893 12.0097 6.26893L10.0003 2.93768L7.9941 6.26893C7.72222 6.72205 7.22535 7.0033 6.69722 7.0033C6.5566 7.0033 6.41597 6.98455 6.2816 6.94393L2.00035 5.71893V11.2814C2.00035 11.7408 2.31285 12.1408 2.7566 12.2502L9.51285 13.9408C9.8316 14.0189 10.166 14.0189 10.4816 13.9408L17.2441 12.2502C17.6878 12.1377 18.0003 11.7377 18.0003 11.2814V5.71893L13.7191 6.9408C13.5847 6.98143 13.4441 7.00018 13.3035 7.00018ZM19.9472 3.49393L18.3378 0.281429C18.241 0.0876786 18.0316 -0.0248215 17.816 0.00330353L10.0003 1.00018L12.866 5.7533C12.9847 5.95018 13.2222 6.04393 13.4441 5.98143L19.6285 4.2158C19.9378 4.12518 20.0878 3.78143 19.9472 3.49393ZM1.66285 0.281429L0.0534711 3.49393C-0.0902789 3.78143 0.0628461 4.12518 0.369096 4.21268L6.55347 5.9783C6.77535 6.0408 7.01285 5.94705 7.1316 5.75018L10.0003 1.00018L2.1816 0.00330353C1.96597 -0.0216965 1.75972 0.0876786 1.66285 0.281429Z" fill="#d3d6dc"/>
</svg>
